<svg aria-hidden="true" style="width:0;height:0;position:absolute;overflow:hidden" xmlns="http://www.w3.org/2000/svg"><defs><symbol id="icon-burger-button" viewBox="0 0 50 32"><path fill="none" style="stroke:" stroke-linecap="round" stroke-width="4.571" d="M2.286 2.286H48M2.286 16H48M2.286 29.714H48"/></symbol><symbol id="icon-close-cross-mobile-menu" viewBox="0 0 32 32"><path style="fill:" d="M23.884 6.706 16 14.59 8.116 6.706a.996.996 0 0 0-1.672.736c0 .26.099.497.262.674l-.001-.001 7.88 7.884-7.882 7.882a.998.998 0 0 0 1.41 1.412l7.886-7.882 7.884 7.884a.996.996 0 0 0 1.672-.736.992.992 0 0 0-.262-.674l.001.001-7.884-7.884 7.884-7.886a.998.998 0 0 0-1.41-1.412v.002z"/></symbol><symbol id="icon-more-arrow" viewBox="0 0 82 32"><path fill="#fcfcfc" style="fill:var(--color1,#fcfcfc)" d="M81.414 17.414c.362-.362.586-.862.586-1.414s-.224-1.052-.586-1.414L68.686 1.858a2 2 0 1 0-2.829 2.827l.001.001L77.172 16 65.858 27.314a2 2 0 0 0 2.829 2.827l-.001.001 12.728-12.728zM0 18h80v-4H0v4z"/></symbol></defs></svg>