<svg aria-hidden="true" style="width:0;height:0;position:absolute;overflow:hidden" xmlns="http://www.w3.org/2000/svg"><defs><symbol id="icon-button-arrow" viewBox="0 0 32 32"><path stroke-linejoin="round" stroke-linecap="round" stroke-width="5.333" d="M10.667 5.333 23.863 16 10.667 26.667"/></symbol><symbol id="about-modal-icon-close" viewBox="0 0 32 32"><path d="m17.253 16 7.369-7.369a.885.885 0 0 0-.047-1.206.89.89 0 0 0-1.206-.047L16 14.747 8.631 7.369a.892.892 0 0 0-1.262 1.262L14.747 16l-7.378 7.369a.891.891 0 0 0-.05 1.304.89.89 0 0 0 1.304-.05l7.378-7.369 7.369 7.369a.885.885 0 0 0 1.206-.047.885.885 0 0 0 .047-1.206l-7.369-7.369z"/></symbol></defs></svg>